<?xml version="1.0" encoding="UTF-8"?>
<svg width="2251px" height="2251px" viewBox="0 0 2251 2251" version="1.1" xmlns="http://www.w3.org/2000/svg" xmlns:xlink="http://www.w3.org/1999/xlink">
    <!-- Generator: Sketch 49.2 (51160) - http://www.bohemiancoding.com/sketch -->
    <title>Group Copy 2</title>
    <desc>Created with Sketch.</desc>
    <defs></defs>
    <g id="Page-1" stroke="none" stroke-width="1" fill="none" fill-rule="evenodd">
        <g id="Group-Copy-2">
            <g id="Group-Copy">
                <circle id="Oval-32-Copy" fill-opacity="0.85" fill="#A8C7C8" cx="1125.5" cy="1125.5" r="1125.5"></circle>
                <g id="Group-14" transform="translate(125.000000, 125.000000)">
                    <g id="Group-10">
                        <path d="M1000,2000 C1552.28475,2000 2000,1552.28475 2000,1000 C2000,447.71525 1552.28475,0 1000,0 C1000,0 1000,333.333333 1000,1000 C333.333333,992 0,992 0,1000 C3.38176876e-14,1552.28475 447.71525,2000 1000,2000 Z" id="Oval-3-Copy-20" fill="#FFFFFF"></path>
                        <path d="M1000,2000 C1275.88448,2000 1525.67539,1888.28016 1706.59958,1707.61362 C1708.51046,1705.70546 1710.41367,1703.7896 1712.30914,1701.86611 C1890.2139,1521.33095 2000,1273.48643 2000,1000 C2000,447.71525 1552.28475,0 1000,0 C1000,0 1000,333.333333 1000,1000 C333.333333,992 0,992 0,1000 C3.38176876e-14,1552.28475 447.71525,2000 1000,2000 Z" id="Oval-3-Copy-21" fill="#16434B"></path>
                        <path d="M1000,1900 C1497.05627,1900 1900,1497.05627 1900,1000 C1900,502.943725 1497.05627,100 1000,100 C1000,100 1000,400 1000,1000 C400,992.8 100,992.8 100,1000 C100,1497.05627 502.943725,1900 1000,1900 Z" id="Oval-3-Copy-22" fill="#4A90E2"></path>
                        <path d="M982.5,1646.5 C1401.65556,1646.5 899.889353,1387.88261 1000,1000 C1001.0094,996.089024 1873.49017,1217.74614 1874.44812,1213.81475 C1891.14748,1145.28123 1900,1073.67442 1900,1000 C1900,807.007808 1839.25469,628.203444 1735.84096,481.663795 C1733.37654,478.171658 1730.88789,474.697844 1728.37526,471.242598 C1724.61217,466.0678 1720.79528,460.93465 1716.92542,455.843969 C1552.54655,239.609069 1292.577,100 1000,100 C1000,100 1000,400 1000,1000 C525,992.8 287.5,992.8 287.5,1000 C287.5,1497.05627 485.443725,1646.5 982.5,1646.5 Z" id="Oval-3-Copy-23" fill="#51CDFA"></path>
                        <path d="M1000,1800 C1441.8278,1800 1800,1441.8278 1800,1000 C1800,558.1722 1441.8278,200 1000,200 C1000,200 1000,466.666667 1000,1000 C466.666667,993.6 200,993.6 200,1000 C200,1441.8278 558.1722,1800 1000,1800 Z" id="Oval-3-Copy-24" fill="#4A90E2"></path>
                        <path d="M1000,1603.5 C1441.8278,1603.5 1564.5,1441.8278 1564.5,1000 C1564.5,839.88361 1081.01262,1125.07811 1000,1000 C996.586997,994.730551 1665.06215,555.179432 1661.52952,549.996337 C1517.53154,338.721326 1274.96582,200 1000,200 C1000,200 1000,466.666667 1000,1000 C591.666667,993.6 387.5,993.6 387.5,1000 C387.5,1441.8278 558.1722,1603.5 1000,1603.5 Z" id="Oval-3-Copy-25" fill="#DEFAF4"></path>
                        <path d="M1000,1700 C1386.59932,1700 1700,1386.59932 1700,1000 C1700,613.400675 1386.59932,300 1000,300 C1000,300 1000,533.333333 1000,1000 C533.333333,994.4 300,994.4 300,1000 C300,1386.59932 613.400675,1700 1000,1700 Z" id="Oval-3-Copy-26" fill="#4A90E2"></path>
                        <path d="M1000,1447 C1386.59932,1447 1433.2269,1386.59932 1433.2269,1000 C1433.2269,783.439825 1154.46108,1128.40154 1000,1000 C995.392577,996.169908 1437.93307,453.844721 1433.2269,450.131757 C1314.05371,356.109295 1163.57937,300 1000,300 C1000,300 1000,533.333333 1000,1000 C656.333333,994.4 484.5,994.4 484.5,1000 C484.5,1386.59932 613.400675,1447 1000,1447 Z" id="Oval-3-Copy-27" fill="#51CDFA"></path>
                        <path d="M1000,1600 C1331.37085,1600 1600,1331.37085 1600,1000 C1600,668.62915 1331.37085,400 1000,400 C1000,400 1000,600 1000,1000 C600,995.2 400,995.2 400,1000 C400,1331.37085 668.62915,1600 1000,1600 Z" id="Oval-3-Copy-28" fill="#4A90E2"></path>
                        <path d="M1000,1372.5 C1331.37085,1372.5 1054.5,1342.87085 1054.5,1011.5 C1054.5,804.333076 1159.67914,1107.8122 1000,1000 C994.251877,996.118981 1323.75954,494.711593 1317.87204,491.026863 C1225.70489,433.343492 1116.74634,400 1000,400 C1000,400 1000,600 1000,1000 C740.666667,995.2 611,995.2 611,1000 C611,1328.00703 662.274851,1387.62253 989,1393 C992.350674,1393.05515 996.63618,1372.5 1000,1372.5 Z" id="Oval-3-Copy-29" fill="#DEFAF4"></path>
                        <path d="M1000,1500 C1276.14237,1500 1500,1276.14237 1500,1000 C1500,723.857625 1276.14237,500 1000,500 C1000,500 1000,666.666667 1000,1000 C666.666667,996 500,996 500,1000 C500,1276.14237 723.857625,1500 1000,1500 Z" id="Oval-3-Copy-30" fill="#4A90E2"></path>
                        <path d="M968.5,1292 C1244.64237,1292 1000,1276.14237 1000,1000 C1000,990.020522 1499.70764,980.109328 1499.13101,970.274518 C1483.75178,707.970056 1266.1629,500 1000,500 C1000,500 1000,666.666667 1000,1000 C816.666667,996 725,996 725,1000 C725,1276.14237 692.357625,1292 968.5,1292 Z" id="Oval-3-Copy-31" fill="#51CDFA"></path>
                        <path d="M1000,1400 C1220.9139,1400 1400,1220.9139 1400,1000 C1400,779.0861 1220.9139,600 1000,600 C1000,600 1000,733.333333 1000,1000 C733.333333,996.8 600,996.8 600,1000 C600,1220.9139 779.0861,1400 1000,1400 Z" id="Oval-3-Copy-32" fill="#4A90E2"></path>
                        <path d="M1000,1197 C1173.62048,1197 944.681379,1154.60148 1000,1000 C1002.46743,993.104151 1381.47474,1120.90338 1383.56834,1113.83842 C1394.26026,1077.75791 1400,1039.54925 1400,1000 C1400,779.0861 1220.9139,600 1000,600 C1000,600 1000,733.333333 1000,1000 C880.333333,996.8 820.5,996.8 820.5,1000 C820.5,1220.9139 779.0861,1197 1000,1197 Z" id="Oval-3-Copy-33" fill="#DEFAF4"></path>
                        <path d="M1000,1300 C1165.68542,1300 1300,1165.68542 1300,1000 C1300,834.314575 1165.68542,700 1000,700 C1000,700 1000,800 1000,1000 C800,997.6 700,997.6 700,1000 C700,1165.68542 834.314575,1300 1000,1300 Z" id="Oval-3-Copy-34" fill="#4A90E2"></path>
                        <path d="M994.5,1153 C1160.18542,1153 1000,1165.68542 1000,1000 C996.299206,999.718778 1015.6321,700.377217 1011.895,700.231501 C1007.94909,700.077644 1003.98361,700 1000,700 C1000,700 1000,800 1000,1000 C911.333333,997.6 867,997.6 867,1000 C867,1165.68542 828.814575,1153 994.5,1153 Z" id="Oval-3-Copy-35" fill="#51CDFA"></path>
                        <path d="M1000,1200 C1110.45695,1200 1200,1110.45695 1200,1000 C1200,889.54305 1110.45695,800 1000,800 C1000,800 1000,866.666667 1000,1000 C866.666667,998.4 800,998.4 800,1000 C800,1110.45695 889.54305,1200 1000,1200 Z" id="Oval-3-Copy-36" fill="#4A90E2"></path>
                        <path d="M1000,1200 C1110.45695,1200 1200,1110.45695 1200,1000 C1200,889.54305 1110.45695,800 1000,800 C1000,800 1000,866.666667 1000,1000 C866.666667,998.4 800,998.4 800,1000 C800,1110.45695 889.54305,1200 1000,1200 Z" id="Oval-3-Copy-37" fill="#4A90E2"></path>
                        <path d="M1000,1100 C1055.22847,1100 1100,1055.22847 1100,1000 C1100,944.771525 1055.22847,900 1000,900 C1000,900 1000,933.333333 1000,1000 C933.333333,999.2 900,999.2 900,1000 C900,1055.22847 944.771525,1100 1000,1100 Z" id="Oval-3-Copy-38" fill="#4A90E2"></path>
                        <path d="M1000,1100 C1055.22847,1100 1100,1055.22847 1100,1000 C1100,944.771525 1055.22847,900 1000,900 C1000,900 1000,933.333333 1000,1000 C933.333333,999.2 900,999.2 900,1000 C900,1055.22847 944.771525,1100 1000,1100 Z" id="Oval-3-Copy-39" fill="#4A90E2"></path>
                        <path d="M1452.9905,108 L999,999.006524" id="Line-3-Copy" stroke="#16434B" stroke-width="4" stroke-linecap="square"></path>
                        <path d="M1808.01699,412 L999,999.785252" id="Line-3-Copy-2" stroke="#16434B" stroke-width="4" stroke-linecap="square"></path>
                        <path d="M1986.68834,843 L999,999.434465" id="Line-3-Copy-3" stroke="#16434B" stroke-width="4" stroke-linecap="square"></path>
                        <path d="M1950.05652,1308.01699 L999,999" id="Line-3-Copy-4" stroke="#16434B" stroke-width="4" stroke-linecap="square"></path>
                        <path d="M108,1452.9905 L999.006524,999" id="Line-3-Copy-9" stroke="#16434B" stroke-width="4" stroke-linecap="square"></path>
                        <path d="M1706.10678,1706.10678 L999,999" id="Line-3-Copy-5" stroke="#16434B" stroke-width="4" stroke-linecap="square"></path>
                        <path d="M1308.01699,1951.05652 L999,1000" id="Line-3-Copy-6" stroke="#16434B" stroke-width="4" stroke-linecap="square"></path>
                        <path d="M843,1987.68834 L999.434465,1000" id="Line-3-Copy-7" stroke="#16434B" stroke-width="4" stroke-linecap="square"></path>
                        <path d="M412,1809.01699 L999.785252,1000" id="Line-3-Copy-8" stroke="#16434B" stroke-width="4" stroke-linecap="square"></path>
                        <g id="Group-8" transform="translate(440.000000, 28.000000)" font-family="Futura-Bold, Futura" font-size="48" font-weight="bold" letter-spacing="-0.3327161">
                            <text id="TOTAL-ON-BOARD" fill="#16434B">
                                <tspan x="83.2010127" y="50">TOTAL ON BOARD</tspan>
                            </text>
                            <text id="MALE-PASSENGERS" fill="#16434B">
                                <tspan x="53.1587415" y="149">MALE PASSENGERS</tspan>
                            </text>
                            <text id="FEMALE-PASSENGERS" fill="#16434B">
                                <tspan x="0.1121737" y="248">FEMALE PASSENGERS</tspan>
                            </text>
                            <text id="FIRST-CLASS" fill="#16434B">
                                <tspan x="236.531877" y="348">FIRST CLASS</tspan>
                            </text>
                            <text id="SECOND-CLASS" fill="#16434B">
                                <tspan x="154.352593" y="447">SECOND CLASS</tspan>
                            </text>
                            <text id="THIRD-CLASS" fill="#16434B">
                                <tspan x="216.419877" y="546">THIRD CLASS</tspan>
                            </text>
                            <text id="MALE-CREW" fill="#16434B">
                                <tspan x="224.199161" y="645"> MALE CREW</tspan>
                            </text>
                            <text id="FEMALE-CREW" fill="#16434B">
                                <tspan x="187.139877" y="745">FEMALE CREW</tspan>
                            </text>
                            <g id="Group-9" transform="translate(577.000000, 0.000000)">
                                <text id="2217" fill="#DEFAF4">
                                    <tspan x="0" y="50">2217</tspan>
                                </text>
                                <text id="843" fill="#16434B">
                                    <tspan x="0" y="149">843</tspan>
                                </text>
                                <text id="466" fill="#16434B">
                                    <tspan x="0" y="248">466</tspan>
                                </text>
                                <text id="323" fill="#16434B">
                                    <tspan x="0" y="348">323</tspan>
                                </text>
                                <text id="277" fill="#16434B">
                                    <tspan x="0" y="447">277</tspan>
                                </text>
                                <text id="709" fill="#16434B">
                                    <tspan x="0" y="546">709</tspan>
                                </text>
                                <text id="885" fill="#16434B">
                                    <tspan x="0" y="645">885</tspan>
                                </text>
                                <text id="23" fill="#16434B">
                                    <tspan x="0" y="745">23</tspan>
                                </text>
                            </g>
                        </g>
                    </g>
                </g>
            </g>
        </g>
    </g>
</svg>